<svg xmlns="http://www.w3.org/2000/svg" width="16px" height="16px" viewBox="0 0 1000 1000">
    <rect fill-opacity="0.6" x="0" y="0" width="1000" height="1000" rx="312.5" ry="312.5" fill="#ff40ff"></rect>
    <g transform="scale(0.5)"><path fill-opacity="0.7" transform="translate(70, 1300) rotate(180) scale(-1, 1)" fill="#ffffff" d="M419 -12c-202 0 -351 159 -351 362c0 198 148 362 354 362c127 0 201 -47 271 -113l-52 -56c-59 56 -125 96 -220 96c-155 0 -271 -126 -271 -289c0 -162 117 -289 271 -289c96 0 159 37 226 101l52 -55c-73 -74 -153 -119 -280 -119z"></path><path fill-opacity="0.7" transform="translate(570, 1300) rotate(180) scale(-1, 1)" fill="#ffffff" d="M259 -9c-83 0 -146 41 -146 146v312h-72v68h72v156h77v-156h164v-68h-164v-302c0 -63 35 -86 87 -86c26 0 48 5 75 18v-66c-27 -14 -56 -22 -93 -22z"></path><path fill-opacity="0.7" transform="translate(1070, 1300) rotate(180) scale(-1, 1)" fill="#ffffff" d="M424 -12c-213 0 -356 167 -356 362c0 193 145 362 358 362s356 -167 356 -362c0 -193 -145 -362 -358 -362zM426 61c160 0 274 128 274 289c0 159 -116 289 -276 289s-274 -128 -274 -289c0 -159 116 -289 276 -289z"></path></g>
</svg>